HIERARCHY
ROOT joint_Root
{
  OFFSET 0 0 0
  CHANNELS 6 Xposition Yposition Zposition Zrotation Xrotation Yrotation
  JOINT Hips
  {
    OFFSET 0 93.9241 -3
    CHANNELS 6 Xposition Yposition Zposition Zrotation Xrotation Yrotation
    JOINT Spine
    {
      OFFSET 15.7357 0 0
      CHANNELS 6 Xposition Yposition Zposition Zrotation Xrotation Yrotation
      JOINT Chest
      {
        OFFSET 8.98455 -0.406207 0
        CHANNELS 6 Xposition Yposition Zposition Zrotation Xrotation Yrotation
        JOINT Neck
        {
          OFFSET 16.3773 0 0
          CHANNELS 6 Xposition Yposition Zposition Zrotation Xrotation Yrotation
          JOINT Head
          {
            OFFSET 6.45672 0 0
            CHANNELS 6 Xposition Yposition Zposition Zrotation Xrotation Yrotation
            End Site
            {
              OFFSET 0 0 0
            }
          }
        }
        JOINT Shoulder_L
        {
          OFFSET 12.9942 -0.242716 4.98039
          CHANNELS 6 Xposition Yposition Zposition Zrotation Xrotation Yrotation
          JOINT UpperArm_L
          {
            OFFSET 5.34809 0 0
            CHANNELS 6 Xposition Yposition Zposition Zrotation Xrotation Yrotation
            JOINT LowerArm_L
            {
              OFFSET 24.3286 1.87007e-05 0
              CHANNELS 6 Xposition Yposition Zposition Zrotation Xrotation Yrotation
              JOINT Hand_L
              {
                OFFSET 22.2916 0 0
                CHANNELS 6 Xposition Yposition Zposition Zrotation Xrotation Yrotation
                End Site
                {
                  OFFSET 0 0 0
                }
              }
            }
          }
        }
        JOINT Shoulder_R
        {
          OFFSET 12.9945 -0.242716 -4.98039
          CHANNELS 6 Xposition Yposition Zposition Zrotation Xrotation Yrotation
          JOINT UpperArm_R
          {
            OFFSET -5.34813 0 0
            CHANNELS 6 Xposition Yposition Zposition Zrotation Xrotation Yrotation
            JOINT LowerArm_R
            {
              OFFSET -24.3289 0.000322201 0
              CHANNELS 6 Xposition Yposition Zposition Zrotation Xrotation Yrotation
              JOINT Hand_R
              {
                OFFSET -22.2915 -0.000108084 0
                CHANNELS 6 Xposition Yposition Zposition Zrotation Xrotation Yrotation
                End Site
                {
                  OFFSET 0 0 0
                }
              }
            }
          }
        }
      }
    }
    JOINT UpperLeg_L
    {
      OFFSET -2.19248 -6.46944 0
      CHANNELS 6 Xposition Yposition Zposition Zrotation Xrotation Yrotation
      JOINT LowerLeg_L
      {
        OFFSET 39.0811 0 -1.23785e-05
        CHANNELS 6 Xposition Yposition Zposition Zrotation Xrotation Yrotation
        JOINT Foot_L
        {
          OFFSET 40.9854 0 -1.26872e-05
          CHANNELS 6 Xposition Yposition Zposition Zrotation Xrotation Yrotation
          JOINT Toes_L
          {
            OFFSET 11.7543 0 0
            CHANNELS 6 Xposition Yposition Zposition Zrotation Xrotation Yrotation
            End Site
            {
              OFFSET 0 0 0
            }
          }
        }
      }
    }
    JOINT UpperLeg_R
    {
      OFFSET -2.19251 6.46944 0
      CHANNELS 6 Xposition Yposition Zposition Zrotation Xrotation Yrotation
      JOINT LowerLeg_R
      {
        OFFSET -39.0811 -0.00228153 -0.0401928
        CHANNELS 6 Xposition Yposition Zposition Zrotation Xrotation Yrotation
        JOINT Foot_R
        {
          OFFSET -40.9854 0 0
          CHANNELS 6 Xposition Yposition Zposition Zrotation Xrotation Yrotation
          JOINT Toes_R
          {
            OFFSET -11.7543 0 0
            CHANNELS 6 Xposition Yposition Zposition Zrotation Xrotation Yrotation
            End Site
            {
              OFFSET 0 0 0
            }
          }
        }
      }
    }
  }
}
MOTION
Frames:	4
Frame Time:	0.0333333
0 0 0 0 0 -0 21.5748 89.3029 -16.9141 97.6408 53.4443 -6.82601 15.7357 5.1072e-06 -5.51765e-07 82.2132 73.1598 -78.6838 8.98455 -0.406207 -4.3199e-07 25.7808 -3.84908 7.99261 16.3773 -1.3905e-06 -6.99897e-07 -4.41264 -10.2683 0.217286 6.45672 -1.25837e-06 -1.02172e-07 2.37009 -10.9798 3.43243 12.9942 -0.242716 4.98039 -90.4203 -7.36123 -108.276 5.34809 -7.22636e-06 -6.2814e-07 -84.9016 -16.7438 12.5962 24.3286 1.87007e-05 4.90208e-06 7.69441 -8.49078 -137.541 22.2916 -9.88446e-07 4.63217e-06 22.5572 5.39636 -2.8196 12.9945 -0.242716 -4.98039 90.4572 -5.44919 -100.196 -5.34813 -1.25947e-06 -3.79883e-06 -78.6094 -14.403 -0.0726497 -24.3289 0.000322201 -8.65921e-06 7.50836 -6.50418 -130.676 -22.2915 -0.000108084 -4.47941e-06 46.0413 5.63383 -13.626 -2.19248 -6.46944 -1.22534e-07 171.104 -0.572397 -23.0268 39.0811 -6.73843e-06 -1.23785e-05 0.122033 -0.135334 35.2013 40.9854 -6.48686e-06 -1.26872e-05 4.26932 -4.30289 -63.2486 11.7543 -2.30145e-07 3.05095e-06 -0.0384237 0.030374 -16.5759 -2.19251 6.46944 -1.45247e-06 164.562 -20.1989 148.73 -39.0811 -0.00228153 -0.0401928 -0.405978 0.181231 63.4388 -40.9854 7.72618e-06 5.99936e-06 16.3298 -25.8946 -27.0935 -11.7543 -5.6619e-06 -5.58687e-06 0.420421 -0.462259 -20.0519 
0 0 0 0 0 -0 23.0407 89.1611 -16.9168 97.1439 54.7144 -5.82022 15.7357 5.1072e-06 -5.51765e-07 82.5565 73.0183 -78.7602 8.98455 -0.406207 -4.3199e-07 26.0879 -3.63618 8.4936 16.3773 -1.3905e-06 -6.99897e-07 -4.14715 -10.4543 0.628262 6.45672 -1.25837e-06 -1.02172e-07 2.78726 -10.9955 3.37542 12.9942 -0.242716 4.98039 -90.3897 -7.12391 -108.139 5.34809 -7.22636e-06 -6.2814e-07 -84.1137 -17.1265 15.384 24.3286 1.87007e-05 4.90208e-06 7.84221 -8.56587 -137.24 22.2916 -9.88446e-07 4.63217e-06 22.5716 5.3963 -2.81772 12.9945 -0.242716 -4.98039 90.4944 -5.86107 -100.17 -5.34813 -1.25947e-06 -3.79883e-06 -79.0697 -14.412 -4.88216 -24.3289 0.000322201 -8.65921e-06 7.4714 -6.51296 -130.856 -22.2915 -0.000108084 -4.47941e-06 46.0883 5.63397 -13.642 -2.19248 -6.46944 -1.22534e-07 170.829 -0.402064 -21.9083 39.0811 -6.73843e-06 -1.23785e-05 0.129343 -0.139762 36.1063 40.9854 -6.48686e-06 -1.26872e-05 5.07269 -3.67682 -64.554 11.7543 -2.30145e-07 3.05095e-06 -0.0515479 0.0413411 -16.5753 -2.19251 6.46944 -1.45247e-06 166.153 -18.2449 147.125 -39.0811 -0.00228153 -0.0401928 -0.415489 0.160037 66.8043 -40.9854 7.72618e-06 5.99936e-06 14.4221 -22.4642 -33.0506 -11.7543 -5.6619e-06 -5.58687e-06 0.402097 -0.440853 -19.8953 
0 0 0 0 0 -0 24.4137 89.1469 -16.8388 96.3966 55.6113 -4.83762 15.7357 5.1072e-06 -5.51765e-07 83.0849 72.9615 -79.0366 8.98455 -0.406207 -4.3199e-07 26.2313 -3.30331 8.92939 16.3773 -1.3905e-06 -6.99897e-07 -4.05347 -10.5628 0.748815 6.45672 -1.25837e-06 -1.02172e-07 3.37213 -11.1708 3.30886 12.9942 -0.242716 4.98039 -90.3394 -6.58636 -107.956 5.34809 -7.22636e-06 -6.2814e-07 -83.3409 -17.3237 18.1455 24.3286 1.87007e-05 4.90208e-06 8.02045 -8.71474 -137.078 22.2916 -9.88446e-07 4.63217e-06 22.6677 5.39831 -2.88241 12.9945 -0.242716 -4.98039 90.5152 -6.22973 -100.263 -5.34813 -1.25947e-06 -3.79883e-06 -79.548 -14.2534 -9.21325 -24.3289 0.000322201 -8.65921e-06 7.44906 -6.61092 -131.363 -22.2915 -0.000108084 -4.47941e-06 45.8332 5.62992 -13.3319 -2.19248 -6.46944 -1.22534e-07 170.77 -0.56809 -20.7407 39.0811 -6.73843e-06 -1.23785e-05 0.124355 -0.132498 36.4026 40.9854 -6.48686e-06 -1.26872e-05 5.79666 -3.05024 -65.5941 11.7543 -2.30145e-07 3.05095e-06 -0.0559715 0.045328 -16.5749 -2.19251 6.46944 -1.45247e-06 167.579 -17.4634 145.529 -39.0811 -0.00228153 -0.0401928 -0.369726 0.139127 67.7393 -40.9854 7.72618e-06 5.99936e-06 10.8585 -24.0812 -37.7453 -11.7543 -5.6619e-06 -5.58687e-06 0.413909 -0.454651 -19.9963 
0 0 0 0 0 -0 25.7279 89.1743 -16.7421 95.793 56.137 -4.2171 15.7357 5.1072e-06 -5.51765e-07 83.6465 72.985 -79.4635 8.98455 -0.406207 -4.3199e-07 26.2085 -2.95806 9.11918 16.3773 -1.3905e-06 -6.99897e-07 -4.02844 -10.6017 0.962007 6.45672 -1.25837e-06 -1.02172e-07 3.7531 -11.4037 2.93006 12.9942 -0.242716 4.98039 -90.2824 -6.09637 -107.657 5.34809 -7.22636e-06 -6.2814e-07 -82.8027 -17.5199 20.6406 24.3286 1.87007e-05 4.90208e-06 7.91352 -8.58217 -137.032 22.2916 -9.88446e-07 4.63217e-06 22.5837 5.40414 -3.07215 12.9945 -0.242716 -4.98039 90.5565 -7.07894 -100.494 -5.34813 -1.25947e-06 -3.79883e-06 -80.8308 -13.8453 -12.4719 -24.3289 0.000322201 -8.65921e-06 7.24159 -6.56103 -131.961 -22.2915 -0.000108084 -4.47941e-06 45.4036 5.62895 -13.258 -2.19248 -6.46944 -1.22534e-07 170.641 -1.51626 -19.7039 39.0811 -6.73843e-06 -1.23785e-05 0.118082 -0.126194 36.3584 40.9854 -6.48686e-06 -1.26872e-05 6.61105 -2.03721 -66.5265 11.7543 -2.30145e-07 3.05095e-06 -0.0632131 0.051437 -16.5746 -2.19251 6.46944 -1.45247e-06 168.675 -17.6513 144.393 -39.0811 -0.00228153 -0.0401928 -0.353346 0.145909 66.241 -40.9854 7.72618e-06 5.99936e-06 8.75466 -25.578 -41.5233 -11.7543 -5.6619e-06 -5.58687e-06 0.398971 -0.437243 -19.8687 
